<svg width="535" height="85" viewBox="0 0 535 85" fill="none" xmlns="http://www.w3.org/2000/svg">
<path d="M48.896 38.4V64H16.896V57.472H10.496V51.2H4.096V32H10.496V25.6H16.896V19.2H48.896V25.6H23.296V32H16.896V51.2H23.296V57.6H36.096V44.8H29.696V38.4H48.896ZM101.896 32V64H89.096V51.2H69.896V64H57.096V32H63.496V25.6H69.896V19.2H89.096V25.6H95.496V32H101.896ZM69.896 44.8H89.096V32H82.696V25.6H76.296V32H69.896V44.8ZM154.896 19.2V64H142.096V44.8H135.696V51.2H129.296V44.8H122.896V64H110.096V19.2H122.896V25.6H129.296V32H135.696V25.6H142.096V19.2H154.896ZM207.896 57.6V64H163.096V19.2H207.896V25.6H175.896V38.4H201.496V44.8H175.896V57.6H207.896ZM260.896 51.2V57.6H254.496V64H228.896V57.6H222.496V51.2H216.096V32H222.496V25.6H228.896V19.2H254.496V25.6H260.896V32H248.096V25.6H235.296V32H228.896V51.2H235.296V57.6H248.096V51.2H260.896ZM313.896 57.6V64H269.096V19.2H313.896V25.6H281.896V38.4H307.496V44.8H281.896V57.6H313.896ZM366.896 19.2V64H354.096V57.6H347.696V51.2H341.296V44.8H334.896V64H322.096V19.2H334.896V25.6H341.296V32H347.696V38.4H354.096V19.2H366.896ZM416.696 19.2V25.6H403.896V64H391.096V25.6H378.296V19.2H416.696ZM472.896 57.6V64H428.096V19.2H472.896V25.6H440.896V38.4H466.496V44.8H440.896V57.6H472.896ZM525.896 57.6V64H506.696V57.6H500.296V51.2H493.896V64H481.096V19.2H519.496V25.6H525.896V44.8H513.096V51.2H519.496V57.6H525.896ZM506.696 38.4H513.096V25.6H493.896V44.8H506.696V38.4Z" fill="white"/>
</svg>
