<svg width="522" height="45" viewBox="0 0 522 45" fill="none" xmlns="http://www.w3.org/2000/svg">
<path d="M44.896 19.4V45H12.896V38.472H6.496V32.2H0.0960002V13H6.496V6.6H12.896V0.199997H44.896V6.6H19.296V13H12.896V32.2H19.296V38.6H32.096V25.8H25.696V19.4H44.896ZM97.896 13V45H85.096V32.2H65.896V45H53.096V13H59.496V6.6H65.896V0.199997H85.096V6.6H91.496V13H97.896ZM65.896 25.8H85.096V13H78.696V6.6H72.296V13H65.896V25.8ZM150.896 0.199997V45H138.096V25.8H131.696V32.2H125.296V25.8H118.896V45H106.096V0.199997H118.896V6.6H125.296V13H131.696V6.6H138.096V0.199997H150.896ZM203.896 38.6V45H159.096V0.199997H203.896V6.6H171.896V19.4H197.496V25.8H171.896V38.6H203.896ZM256.896 32.2V38.6H250.496V45H224.896V38.6H218.496V32.2H212.096V13H218.496V6.6H224.896V0.199997H250.496V6.6H256.896V13H244.096V6.6H231.296V13H224.896V32.2H231.296V38.6H244.096V32.2H256.896ZM309.896 38.6V45H265.096V0.199997H309.896V6.6H277.896V19.4H303.496V25.8H277.896V38.6H309.896ZM362.896 0.199997V45H350.096V38.6H343.696V32.2H337.296V25.8H330.896V45H318.096V0.199997H330.896V6.6H337.296V13H343.696V19.4H350.096V0.199997H362.896ZM412.696 0.199997V6.6H399.896V45H387.096V6.6H374.296V0.199997H412.696ZM468.896 38.6V45H424.096V0.199997H468.896V6.6H436.896V19.4H462.496V25.8H436.896V38.6H468.896ZM521.896 38.6V45H502.696V38.6H496.296V32.2H489.896V45H477.096V0.199997H515.496V6.6H521.896V25.8H509.096V32.2H515.496V38.6H521.896ZM502.696 19.4H509.096V6.6H489.896V25.8H502.696V19.4Z" fill="var(--texto)"/>
</svg>