<svg width="336" height="50" viewBox="0 0 336 50" fill="none" xmlns="http://www.w3.org/2000/svg">
<path d="M30.56 24V40H10.56V35.92H6.56V32H2.56V20H6.56V16H10.56V12H30.56V16H14.56V20H10.56V32H14.56V36H22.56V28H18.56V24H30.56ZM63.685 20V40H55.685V32H43.685V40H35.685V20H39.685V16H43.685V12H55.685V16H59.685V20H63.685ZM43.685 28H55.685V20H51.685V16H47.685V20H43.685V28ZM96.81 12V40H88.81V28H84.81V32H80.81V28H76.81V40H68.81V12H76.81V16H80.81V20H84.81V16H88.81V12H96.81ZM129.935 36V40H101.935V12H129.935V16H109.935V24H125.935V28H109.935V36H129.935ZM163.06 32V36H159.06V40H143.06V36H139.06V32H135.06V20H139.06V16H143.06V12H159.06V16H163.06V20H155.06V16H147.06V20H143.06V32H147.06V36H155.06V32H163.06ZM196.185 36V40H168.185V12H196.185V16H176.185V24H192.185V28H176.185V36H196.185ZM229.31 12V40H221.31V36H217.31V32H213.31V28H209.31V40H201.31V12H209.31V16H213.31V20H217.31V24H221.31V12H229.31ZM260.435 12V16H252.435V40H244.435V16H236.435V12H260.435ZM295.56 36V40H267.56V12H295.56V16H275.56V24H291.56V28H275.56V36H295.56ZM328.685 36V40H316.685V36H312.685V32H308.685V40H300.685V12H324.685V16H328.685V28H320.685V32H324.685V36H328.685ZM316.685 24H320.685V16H308.685V28H316.685V24Z" fill="white"/>
</svg>
